<?xml version="1.0"?>
<svg xmlns="http://www.w3.org/2000/svg" height="512px" viewBox="0 -37 511.99978 511" width="512px" class=""><g transform="matrix(0.980002 0 0 0.980002 5.11948 4.36956)"><path d="m383.488281 253.175781-11.167969-10.664062 27.925782-65.15625 15.300781-11.550781c24.128906 8.859374 36.503906 35.601562 27.644531 59.726562-8.859375 24.113281-35.582031 36.488281-59.703125 27.644531zm0 0" fill="#b8eaee" data-original="#B8EAEE"/><path d="m223.390625 251.816406h37.820313v139.621094c0 10.28125-8.335938 18.617188-18.617188 18.617188h-.585938c-10.28125 0-18.617187-8.335938-18.617187-18.617188zm0 0" fill="#eaeae8" data-original="#EAEAE8" class=""/><path d="m241.878906 284.851562-17.480468-6.414062c-14.476563-5.316406-21.898438-21.363281-16.578126-35.839844v-.003906l14.269532-30.855469 68.011718 24.5625-12.386718 31.964844c-5.316406 14.476563-21.359375 21.902344-35.835938 16.585937zm0 0" fill="#cbcbcb" data-original="#CBCBCB"/><path d="m123.652344 177.59375 38.503906-104.847656 253.386719 93.046875-38.503907 104.847656zm0 0" fill="#dbdbdb" data-original="#DBDBDB"/><path d="m125.777344 9.808594-41.707032 113.585937 200.960938 73.804688 30.304688-28.53125 87.375 32.085937 99.921874-51.324218zm0 0" fill="#85bc94" data-original="#85BC94" class=""/><path d="m172.328125 126.054688 6.414063-17.476563 17.476562 6.417969-6.417969 17.476562zm0 0" fill="#cbcbcb" data-original="#CBCBCB"/><path d="m207.277344 138.886719 6.414062-17.476563 17.476563 6.417969-6.417969 17.476563zm0 0" fill="#dbdbdb" data-original="#DBDBDB"/><path d="m242.226562 151.726562 6.417969-17.476562 17.472657 6.417969-6.417969 17.476562zm0 0" fill="#cbcbcb" data-original="#CBCBCB"/><path d="m74.464844 335.589844h186.160156v37.230468h-186.160156zm0 0" fill="#dbdbdb" data-original="#DBDBDB"/><path d="m46.839844 400.746094v-93.078125c20.5625 0 37.230468 16.667969 37.230468 37.230469v18.617187c0 20.5625-16.667968 37.230469-37.230468 37.230469zm0 0" fill="#cbcbcb" data-original="#CBCBCB"/><path d="m9.308594 279.742188h37.527344v148.929687h-37.527344zm0 0" fill="#c3c3c3" data-original="#C3C3C3"/><path d="m505.871094 140.699219-376.863282-139.621094c-4.820312-1.78125-10.171874.683594-11.953124 5.507813-.003907.003906-.003907.007812-.007813.011718l-41.71875 113.558594c-1.773437 4.824219.699219 10.175781 5.523437 11.949219.003907 0 .003907 0 .007813.003906l43.683594 16.035156-9.625 26.222657c-1.769531 4.824218.703125 10.167968 5.527343 11.941406l87.382813 32.085937-6.421875 17.480469c-5.835938 15.652344-.386719 33.277344 13.265625 42.910156v47.496094h-125.242187c-6.0625-13.859375-18.46875-23.921875-33.285157-26.992188v-19.546874c0-5.140626-4.167969-9.308594-9.304687-9.308594h-37.53125c-5.140625 0-9.308594 4.167968-9.308594 9.308594v148.929687c0 5.140625 4.167969 9.304687 9.308594 9.304687h37.527344c5.140624 0 9.308593-4.164062 9.308593-9.304687v-19.546875c14.816407-3.070312 27.222657-13.132812 33.285157-26.996094h125.242187v9.308594c0 15.421875 12.5 27.925781 27.921875 27.925781s27.925781-12.503906 27.925781-27.925781v-103.113281c8.460938-4.195313 14.992188-11.472657 18.25-20.339844l6.425781-17.480469 78.640626 28.855469c1.027343.378906 2.109374.570313 3.203124.570313 3.902344 0 7.394532-2.433594 8.742188-6.097657l3.488281-9.503906c30.289063 5.699219 59.460938-14.234375 65.15625-44.519531 2.105469-11.191406.738281-22.757813-3.917969-33.148438l56.425782-28.972656c4.574218-2.34375 6.382812-7.953125 4.039062-12.527344-1.0625-2.078125-2.867187-3.679687-5.054687-4.488281zm-272.585938 146.5625 7.707032 2.792969c3.507812 1.257812 7.1875 1.980468 10.910156 2.140624v34.085938h-18.617188zm-195.753906 132.101562h-18.914062v-130.3125h18.914062zm37.230469-55.847656c-.015625 11.828125-7.46875 22.371094-18.617188 26.332031v-71.28125c11.148438 3.957032 18.601563 14.5 18.617188 26.332032zm18.90625-18.617187h158.234375v18.617187h-158.234375zm148.925781 55.847656c-5.140625 0-9.308594-4.167969-9.308594-9.308594v-9.308594h18.617188v9.308594c0 5.140625-4.167969 9.308594-9.308594 9.308594zm35.128906-156.652344-6.421875 17.480469c-3.546875 9.640625-14.238281 14.585937-23.882812 11.046875l-17.511719-6.414063c-9.648438-3.542969-14.601562-14.238281-11.054688-23.890625l6.421876-17.472656 47.183593 17.324219zm93.796875 14.613281-235.921875-86.628906 6.425782-17.480469 139.796874 51.332032c3.308594 1.203124 7.019532.449218 9.59375-1.953126l26.121094-24.59375 73.234375 26.898438zm62.933594-36.375c-5.894531 15.898438-21.761719 25.835938-38.640625 24.199219l14.382812-39.175781 23.492188-12.101563c3.679688 8.601563 3.949219 18.28125.765625 27.078125zm-31.417969-32.1875c-.492187.042969-.980468.132813-1.460937.257813l-82.988281-30.472656c-3.308594-1.214844-7.019532-.460938-9.585938 1.953124l-26.15625 24.59375-186.832031-68.609374 35.285156-96.085938 348.269531 129.027344zm0 0" data-original="#000000" class="active-path" style="fill:#000000"/><path d="m172.328125 126.054688 6.414063-17.476563 17.476562 6.417969-6.417969 17.476562zm0 0" data-original="#000000" class="active-path" style="fill:#000000"/><path d="m207.277344 138.886719 6.414062-17.476563 17.476563 6.417969-6.417969 17.476563zm0 0" data-original="#000000" class="active-path" style="fill:#000000"/><path d="m242.226562 151.726562 6.417969-17.476562 17.472657 6.417969-6.417969 17.476562zm0 0" data-original="#000000" class="active-path" style="fill:#000000"/></g> </svg>
